<?xml version="1.0" encoding="utf-8"?>
<!-- Generator: Adobe Illustrator 18.0.0, SVG Export Plug-In . SVG Version: 6.00 Build 0)  -->
<!DOCTYPE svg PUBLIC "-//W3C//DTD SVG 1.1//EN" "http://www.w3.org/Graphics/SVG/1.1/DTD/svg11.dtd">
<svg version="1.1" id="Layer_1" xmlns="http://www.w3.org/2000/svg" xmlns:xlink="http://www.w3.org/1999/xlink" x="0px" y="0px"
	 width="175.002px" height="39.994px" viewBox="0 0 175.002 39.994" enable-background="new 0 0 175.002 39.994"
	 xml:space="preserve">
<g>
	<g>
		<path fill="#FFFFFF" d="M0,39.994h40.122V0H0V39.994z M25.716,3.055c7.092,2.316,12.216,9.018,12.235,16.935
			c0.019,7.789-5.002,14.474-12.235,16.944V3.055z M20.054,2.149c1.281,0,2.646,0.17,3.783,0.396
			c0,9.061-8.791,16.517-17.865,16.517l-3.794-0.006C2.8,9.768,10.511,2.149,20.054,2.149z M5.975,20.948
			c9.072,0,17.86,7.449,17.86,16.502c-1.135,0.231-2.568,0.402-3.781,0.402c-9.547-0.013-17.518-7.655-17.879-16.904H5.975z
			 M53.552,23.512v-2.52h8.348v-3.214h-8.35v-4.679h8.882V9.892H50.134v13.474c0,3.406,1.456,5.736,4.872,6.214
			c0.068,0.017,0.135,0.03,0.198,0.031h0.062c0.349,0.038,0.707,0.065,1.082,0.065h6.323v-3.203h-6.294
			C55.289,26.474,53.552,25.94,53.552,23.512z M65.099,29.682h3.419V9.887h-3.419V29.682z M78.554,14.915
			c-4.321,0-7.555,2.967-7.555,7.588v0.115c0,4.507,3.12,7.416,7.641,7.416c2.175,0,4.206-0.599,6.067-2.567l-2.06-1.997
			c-1.088,1.084-2.147,1.655-3.892,1.655c-2.547,0-4.235-1.484-4.35-3.766h11.218c0.057-0.57,0.057-1.198,0.057-1.198
			C85.68,18.138,82.846,14.915,78.554,14.915z M74.49,20.963c0.143-1.741,1.917-3.138,4.064-3.138c2.003,0,3.634,1.427,3.634,3.138
			H74.49z M95.286,17.968c1.546,0,2.691,0.57,3.663,1.568l2.118-2.197c-1.66-1.769-3.634-2.482-5.781-2.482
			c-4.35,0-7.841,3.224-7.841,7.616c0,4.393,3.491,7.617,7.841,7.617c2.147,0,4.121-0.713,5.781-2.482l-2.118-2.197
			c-0.973,0.998-2.118,1.569-3.663,1.569c-2.518,0-4.436-1.912-4.436-4.508C90.85,19.879,92.768,17.968,95.286,17.968z
			 M106.614,23.517h-0.004v-5.054h3.109v-3.096h-3.105v-5.48h-3.419v13.831l0.009-0.001c0.098,3.215,1.564,5.406,4.862,5.868
			c0.068,0.018,0.136,0.03,0.198,0.031h0.062c0.35,0.038,0.708,0.065,1.082,0.065h0.362l0.012-3.202h-0.346
			C108.351,26.479,106.614,25.945,106.614,23.517z M115.987,17.497v-2.128h-3.391v14.313h3.391v-7.526
			c0-2.357,1.51-3.834,3.874-3.834c0.541,0,1.026,0.056,1.425,0.142v-3.294c-0.143-0.028-0.655-0.084-1.025-0.084
			C118.209,15.084,116.671,16.021,115.987,17.497z M129.646,14.943c-4.36,0-7.836,3.293-7.836,7.582
			c0,4.287,3.477,7.583,7.836,7.583c4.33,0,7.835-3.296,7.835-7.583C137.48,18.235,133.975,14.943,129.646,14.943z M129.646,27.012
			c-2.536,0-4.444-1.96-4.444-4.487c0-2.529,1.908-4.488,4.444-4.488c2.508,0,4.444,1.959,4.444,4.488
			C134.09,25.052,132.154,27.012,129.646,27.012z M139.583,29.682h3.421V9.887h-3.421V29.682z M155.334,23.688
			c0,2.272-1.339,3.238-3.135,3.238c-1.795,0-3.133-0.966-3.133-3.208v-8.349h-3.448v8.634c0,4.089,2.991,6.049,6.553,6.049
			c3.59,0,6.609-1.988,6.609-6.135v-8.547h-3.446V23.688z M171.717,25.103l-2.156-3.005l2.67-3.626l2.286-3.104h-3.732l-3.107,4.287
			l-3.134-4.287h-3.703l2.124,2.895l2.834,3.863l-2.97,4.122l-2.472,3.432h3.675l3.646-5.056l3.647,5.056h3.676L171.717,25.103z"/>
	</g>
</g>
</svg>
